<?xml version="1.0" encoding="utf-8"?>
<svg version="1.1" id="Layer_1" xmlns="http://www.w3.org/2000/svg" xmlns:xlink="http://www.w3.org/1999/xlink" x="0px" y="0px"
	 viewBox="0 0 1447.01 1668.332" enable-background="new 0 0 1447.01 1668.332" xml:space="preserve">
<g>
	<path fill="#262626" d="M1347.28,1049.613c68.05,82.61,92.13,202.06,62.84,311.74c-44.08,164.29-192.46,272.6-356.79,272.63
		c0-0.04-18.05-0.31-631.05-0.31c-320.35,15.85-498.57-357.05-311.57-584.06l346.7-420.93v-494.39h-67.95V34.163h678.95v100.13
		h-67.83v494.39L1347.28,1049.613z M1059.05,1527.643c238.84-13.06,321.24-270.73,206.16-410.43l-370.96-450.38v-501.18H563.74
		v501.18l-370.96,450.38c-129.17,156.81-2.96,423.34,226.56,410.13c611.35,0,638.71,0.26,639.68,0.3H1059.05z"/>
	<g>
		<circle fill="#D9E021" cx="716.65" cy="324.704" r="63.545"/>
		<circle fill="#9E005D" cx="276.078" cy="1292.325" r="64.6"/>
		<circle fill="#8CC63F" cx="921.462" cy="994.122" r="63.931"/>
		<circle fill="#D9E021" cx="735.114" cy="819.122" r="63.555"/>
		<circle fill="#8C6239" cx="983.115" cy="1288.197" r="63.828"/>
		<circle fill="#ED1C24" cx="936.869" cy="1406.695" r="63.374"/>
		<circle fill="#8C6239" cx="495.794" cy="1296.273" r="64.33"/>
		<circle fill="#603813" cx="814.929" cy="1453.302" r="63.52"/>
		<circle fill="#FFFF00" cx="787.125" cy="1263.797" r="63.594"/>
		<circle fill="#3FA9F5" cx="494.846" cy="1139.515" r="64.605"/>
		<circle fill="#22B573" cx="1059.69" cy="1063.817" r="64.572"/>
		<circle fill="#00FF00" cx="346.069" cy="1096.549" r="64.038"/>
		<circle fill="#534741" cx="931.061" cy="848.033" r="63.772"/>
		<circle fill="#3FA9F5" cx="1102.915" cy="1217.975" r="66.543"/>
		<circle fill="#A67C52" cx="664.336" cy="667.489" r="63.963"/>
		<circle fill="#FCEE21" cx="394.555" cy="1426.292" r="63.507"/>
		<circle fill="#A67C52" cx="682.678" cy="958.524" r="66.12"/>
		<circle fill="#93278F" cx="816.434" cy="449.525" r="64.047"/>
		<circle fill="#FF0000" cx="937.585" cy="1135.921" r="66.042"/>
		<circle fill="#FF931E" cx="824.594" cy="659.951" r="64.226"/>
		<circle fill="#3FA9F5" cx="1115.337" cy="1361.677" r="65.502"/>
		<circle fill="#FFFF00" cx="790.075" cy="1087.307" r="63.559"/>
		<circle fill="#C69C6D" cx="701.52" cy="504.341" r="63.272"/>
		<circle fill="#736357" cx="533.46" cy="833.494" r="64.921"/>
		<circle fill="#00FF00" cx="495.158" cy="961.789" r="63.67"/>
		<circle fill="#754C24" cx="647.878" cy="1325.793" r="63.351"/>
		<circle fill="#00A99D" cx="661.051" cy="1146.032" r="63.67"/>
		<circle fill="#00FF00" cx="604.61" cy="1457.302" r="63.801"/>
		<circle fill="#00FF00" cx="1233.325" cy="1307.867" r="64.177"/>
		<circle fill="#736357" cx="386.264" cy="1279.249" r="46.36"/>
		<circle fill="#009245" cx="748.218" cy="1368.492" r="44.383"/>
		<circle fill="#009245" cx="570.171" cy="1048.007" r="46.594"/>
		<circle fill="#0071BC" cx="818.283" cy="932.232" r="43.013"/>
		<circle fill="#FF00FF" cx="1053.022" cy="1471.801" r="44.893"/>
		<circle fill="#29ABE2" cx="606.597" cy="432.089" r="42.857"/>
		<circle fill="#FF7BAC" cx="267.989" cy="1168.595" r="42.202"/>
		<circle fill="#FF7BAC" cx="1225.797" cy="1175.059" r="44.176"/>
		<circle fill="#FF00FF" cx="608.675" cy="295.552" r="44.935"/>
		<circle fill="#8C6239" cx="378.808" cy="994.638" r="43.003"/>
		<circle fill="#8CC63F" cx="690.092" cy="217.992" r="42.252"/>
		<circle fill="#A67C52" cx="1032.702" cy="930.68" r="43.148"/>
		<circle fill="#9E005D" cx="822.385" cy="326.264" r="42.202"/>
		<circle fill="#7AC943" cx="802.132" cy="238.242" r="42.49"/>
		<circle fill="#998675" cx="209.251" cy="1366.417" r="29.203"/>
		<circle fill="#29ABE2" cx="620.099" cy="874.831" r="28.459"/>
		<circle fill="#C7B299" cx="837.951" cy="842.951" r="29.477"/>
		<circle fill="#009245" cx="1192.317" cy="1073.756" r="28.637"/>
		<circle fill="#006837" cx="852.277" cy="768.458" r="28.428"/>
		<circle fill="#FF931E" cx="294.848" cy="1454.639" r="29.123"/>
		<circle fill="#998675" cx="381.222" cy="1185.447" r="29.537"/>
		<circle fill="#FF0000" cx="587.565" cy="956.476" r="28.89"/>
		<circle fill="#FBB03B" cx="742.44" cy="605.807" r="29.545"/>
		<circle fill="#754C24" cx="1140.557" cy="1109.179" r="28.149"/>
		<circle fill="#534741" cx="1163.313" cy="1446.308" r="31.273"/>
		<circle fill="#29ABE2" cx="603.657" cy="1227.063" r="31.376"/>
		<circle fill="#00A99D" cx="650.11" cy="784.713" r="28.149"/>
		<circle fill="#F7931E" cx="450.514" cy="1058.041" r="28.149"/>
		<circle fill="#7AC943" cx="191.885" cy="1252.059" r="28.726"/>
		<circle fill="#F15A24" cx="894.19" cy="1324.681" r="29.08"/>
		<circle fill="#D9E021" cx="1091.209" cy="972.918" r="29.012"/>
		<circle fill="#009245" cx="820.267" cy="567.677" r="28.149"/>
		<circle fill="#662D91" cx="306.971" cy="1398.569" r="28.242"/>
		<circle fill="#FF7BAC" cx="597.368" cy="588.356" r="31.627"/>
		<circle fill="#22B573" cx="723.009" cy="1440.583" r="29.276"/>
		<circle fill="#754C24" cx="502.444" cy="1393.446" r="29.285"/>
		<circle fill="#F15A24" cx="889.574" cy="1264.027" r="31.75"/>
		<circle fill="#D4145A" cx="434.402" cy="1232.968" r="20.417"/>
		<circle fill="#BDCCD4" cx="383.548" cy="932.345" r="19.47"/>
		<circle fill="#22B573" cx="588.115" cy="770.107" r="18.775"/>
		<circle fill="#FF1D25" cx="961.264" cy="1505.194" r="22.287"/>
		<circle fill="#7AC943" cx="186.294" cy="1176.9" r="19.128"/>
		<circle fill="#00A99D" cx="443.48" cy="1498.584" r="23.784"/>
		<circle fill="#FF1D25" cx="403.787" cy="897.749" r="20.611"/>
		<circle fill="#29ABE2" cx="234.145" cy="1417.54" r="21.71"/>
		<circle fill="#FCEE21" cx="863.437" cy="544.613" r="20.796"/>
		<circle fill="#3FA9F5" cx="1221.434" cy="1112.26" r="18.775"/>
		<circle fill="#FF0000" cx="579.06" cy="1183.358" r="18.775"/>
		<circle fill="#ED1E79" cx="456.531" cy="874.548" r="22.276"/>
		<circle fill="#00FFFF" cx="744.172" cy="692.979" r="19.843"/>
		<circle fill="#9E005D" cx="618.58" cy="363.522" r="21.395"/>
		<circle fill="#C1272D" cx="749.523" cy="1503.248" r="18.775"/>
		<circle fill="#FBB03B" cx="566.353" cy="707.586" r="22.913"/>
		<circle fill="#FF7BAC" cx="813.377" cy="1183.536" r="20.851"/>
		<circle fill="#009245" cx="1284.857" cy="1219.842" r="19.518"/>
		<circle fill="#FCEE21" cx="195.788" cy="1319.249" r="19.093"/>
		<circle fill="#FF1D25" cx="741.148" cy="1190.746" r="22.722"/>
		<circle fill="#F15A24" cx="621.455" cy="539.107" r="22.437"/>
		<circle fill="#534741" cx="542.745" cy="1219.256" r="20.152"/>
		<circle fill="#1B1464" cx="553.917" cy="1384.588" r="21.237"/>
		<circle fill="#FF00FF" cx="697.281" cy="1503.042" r="21.357"/>
		<circle fill="#FF0000" cx="869.155" cy="379.429" r="23.663"/>
		<circle fill="#1B1464" cx="804.719" cy="999.441" r="22.401"/>
		<circle fill="#FF1D25" cx="1226.766" cy="1403.701" r="18.979"/>
		<circle fill="#998675" cx="684.234" cy="1243.14" r="23.113"/>
		<circle fill="#FF0000" cx="404.52" cy="1344.615" r="18.775"/>
		<circle fill="#BDCCD4" cx="901.327" cy="736.247" r="24.149"/>
		<circle fill="#ED1E79" cx="1019.672" cy="1199.238" r="18.783"/>
		<circle fill="#FF7BAC" cx="851.77" cy="1171.55" r="19.37"/>
		<circle fill="#C69C6D" cx="227.213" cy="1107.761" r="20.568"/>
		<circle fill="#0000FF" cx="505.064" cy="1053.851" r="18.775"/>
		<circle fill="#D4145A" cx="1031.602" cy="1154.796" r="27.232"/>
		<circle fill="#FF7BAC" cx="1142.93" cy="1057.147" r="18.936"/>
		<circle fill="#736357" cx="821.032" cy="1357.326" r="19.663"/>
		<circle fill="#FCEE21" cx="872.812" cy="1205.15" r="20.275"/>
		<circle fill="#009245" cx="632.281" cy="1026.843" r="18.775"/>
		<circle fill="#FF931E" cx="504.695" cy="1471.922" r="21.656"/>
		<circle fill="#8CC63F" cx="603.44" cy="496.878" r="20.202"/>
		<circle fill="#1B1464" cx="320.875" cy="1229.546" r="12.523"/>
		<circle fill="#ED1E79" cx="662.945" cy="1039.979" r="13.724"/>
		<circle fill="#998675" cx="963.408" cy="930.202" r="12.523"/>
		<circle fill="#F15A24" cx="1113.351" cy="1493.543" r="18.42"/>
		<circle fill="#F7931E" cx="726.964" cy="1031.531" r="19.269"/>
		<circle fill="#FF7BAC" cx="770.523" cy="729.706" r="18.538"/>
		<circle fill="#9E005D" cx="692.95" cy="1386.828" r="12.523"/>
		<circle fill="#BDCCD4" cx="920.904" cy="1223.31" r="19.626"/>
		<circle fill="#ED1E79" cx="319.827" cy="1487.963" r="12.523"/>
		<circle fill="#ED1E79" cx="738.275" cy="251.182" r="13.092"/>
		<circle fill="#534741" cx="637.25" cy="232.415" r="12.523"/>
		<circle fill="#0071BC" cx="766.491" cy="962.684" r="17.068"/>
		<circle fill="#C1272D" cx="874.531" cy="308.568" r="12.865"/>
		<circle fill="#C7B299" cx="1132.188" cy="1019.523" r="13.221"/>
		<circle fill="#1B1464" cx="1040.745" cy="1390.256" r="14.377"/>
		<circle fill="#C69C6D" cx="554.688" cy="742.275" r="13.229"/>
		<circle fill="#D9E021" cx="678.962" cy="1474.541" r="12.523"/>
		<circle fill="#D9E021" cx="250.88" cy="1386.371" r="13.667"/>
		<circle fill="#7AC943" cx="691.05" cy="415.127" r="26.555"/>
		<circle fill="#D9E021" cx="269.017" cy="1104.037" r="13.377"/>
		<circle fill="#93278F" cx="290.8" cy="1036.658" r="15.949"/>
		<circle fill="#C7B299" cx="1118.067" cy="1448.755" r="14.039"/>
		<circle fill="#00FF00" cx="752.527" cy="1000.737" r="15.494"/>
		<circle fill="#22B573" cx="711.64" cy="1218.482" r="13.753"/>
		<circle fill="#FBB03B" cx="777.46" cy="544.093" r="20.548"/>
		<circle fill="#F7931E" cx="633.018" cy="1070.885" r="16.535"/>
		<circle fill="#FF7BAC" cx="688.284" cy="1046.823" r="12.523"/>
		<circle fill="#C7B299" cx="268" cy="1422.616" r="12.523"/>
		<circle fill="#D4145A" cx="1135.026" cy="993.936" r="12.523"/>
		<circle fill="#BDCCD4" cx="588.925" cy="680.269" r="12.523"/>
		<circle fill="#1B1464" cx="587.07" cy="545.423" r="12.523"/>
		<circle fill="#006837" cx="851.595" cy="1347.236" r="12.523"/>
		<circle fill="#603813" cx="346.227" cy="1217.047" r="15.166"/>
		<circle fill="#93278F" cx="881.637" cy="1510.771" r="16.657"/>
		<circle fill="#D9E021" cx="1091.805" cy="1136.709" r="15.081"/>
		<circle fill="#22B573" cx="897.077" cy="1473.285" r="12.781"/>
		<circle fill="#8CC63F" cx="651.754" cy="370.588" r="12.523"/>
		<circle fill="#ED1C24" cx="1207.019" cy="1449.13" r="12.523"/>
		<circle fill="#FBB03B" cx="693.754" cy="583.553" r="16.32"/>
		<circle fill="#C7B299" cx="481.732" cy="1497.239" r="12.523"/>
		<circle fill="#7AC943" cx="510.105" cy="1220.765" r="12.523"/>
		<circle fill="#D4145A" cx="541.354" cy="1506.256" r="16.185"/>
		<circle fill="#662D91" cx="995.479" cy="1457.006" r="13.868"/>
		<circle fill="#2E3192" cx="422.222" cy="1168.43" r="13.563"/>
		<circle fill="#FF7BAC" cx="933.045" cy="771.763" r="12.523"/>
		<circle fill="#FF00FF" cx="434.026" cy="916.31" r="12.523"/>
		<circle fill="#ED1E79" cx="463.74" cy="1377.638" r="12.523"/>
		<circle fill="#93278F" cx="1028.714" cy="875.152" r="12.523"/>
		<circle fill="#754C24" cx="826.16" cy="736.915" r="12.523"/>
		<circle fill="#FBB03B" cx="596.017" cy="199.394" r="13.309"/>
		<circle fill="#1B1464" cx="528.968" cy="743.563" r="12.523"/>
		<circle fill="#736357" cx="868.271" cy="892.827" r="13.359"/>
		<circle fill="#3FA9F5" cx="580.587" cy="1116.631" r="17.47"/>
		<circle fill="#F15A24" cx="1281.559" cy="1187.971" r="12.523"/>
		<circle fill="#603813" cx="770.697" cy="1164.278" r="15.814"/>
		<circle fill="#F7931E" cx="1163.535" cy="1022.643" r="13.33"/>
		<circle fill="#ED1E79" cx="1003.752" cy="1010.288" r="12.852"/>
		<circle fill="#FCEE21" cx="690.517" cy="752.177" r="16.884"/>
		<circle fill="#603813" cx="623.051" cy="733.825" r="12.854"/>
		<circle fill="#FF1D25" cx="884.913" cy="1077.309" r="12.76"/>
		<circle fill="#FF7BAC" cx="873.412" cy="209.886" r="14.896"/>
		<circle fill="#FBB03B" cx="422.415" cy="1088.962" r="12.685"/>
		<circle fill="#006837" cx="850.001" cy="185.598" r="13.277"/>
		<circle fill="#D4145A" cx="775.791" cy="989.003" r="8.353"/>
		<circle fill="#D4145A" cx="1164.459" cy="1156.748" r="19.837"/>
		<circle fill="#ED1E79" cx="752.372" cy="901.158" r="12.494"/>
		<circle fill="#009245" cx="1186.997" cy="1389.964" r="11.538"/>
		<circle fill="#FF7BAC" cx="981.422" cy="1060.012" r="13.788"/>
		<circle fill="#00A99D" cx="369.335" cy="1221.424" r="8.353"/>
		<circle fill="#0071BC" cx="184.483" cy="1206.878" r="10.905"/>
		<circle fill="#8C6239" cx="1041.436" cy="1336.518" r="11.91"/>
		<circle fill="#FFFF00" cx="832.814" cy="528.324" r="13.156"/>
		<circle fill="#9E005D" cx="743.636" cy="730.15" r="8.353"/>
		<circle fill="#FCEE21" cx="1177.81" cy="1217.537" r="8.353"/>
		<circle fill="#534741" cx="736.73" cy="1315.146" r="8.353"/>
		<circle fill="#C1272D" cx="903.28" cy="1493.487" r="8.353"/>
		<circle fill="#FCEE21" cx="648.204" cy="182.156" r="12.874"/>
		<circle fill="#FFFF00" cx="744.185" cy="657.794" r="15.343"/>
		<circle fill="#FF931E" cx="744.206" cy="181.009" r="15.356"/>
		<circle fill="#7AC943" cx="1238.273" cy="1228.026" r="10.24"/>
		<circle fill="#A67C52" cx="698.121" cy="1271.375" r="8.353"/>
		<circle fill="#7AC943" cx="246.083" cy="1359.083" r="8.353"/>
		<circle fill="#D4145A" cx="576.126" cy="207.974" r="8.353"/>
		<circle fill="#FFFF00" cx="843.664" cy="1135.262" r="8.353"/>
		<circle fill="#FF00FF" cx="505.669" cy="764.006" r="9.918"/>
		<circle fill="#C1272D" cx="758.899" cy="932.298" r="14.252"/>
		<circle fill="#00FF00" cx="274.936" cy="1378.204" r="9.718"/>
		<circle fill="#BDCCD4" cx="656.767" cy="745.505" r="9.748"/>
		<circle fill="#9E005D" cx="255.766" cy="1077.339" r="16.429"/>
		<circle fill="#006837" cx="215.199" cy="1156.851" r="11.878"/>
		<circle fill="#29ABE2" cx="663.686" cy="585.496" r="13.81"/>
		<circle fill="#2E3192" cx="581.139" cy="514.711" r="8.353"/>
		<circle fill="#8CC63F" cx="618.081" cy="819.403" r="19.066"/>
		<circle fill="#D4145A" cx="982.619" cy="1211.549" r="12.821"/>
		<circle fill="#FF1D25" cx="663.933" cy="1074.067" r="8.353"/>
		<circle fill="#1B1464" cx="681.922" cy="1411.769" r="14.747"/>
		<circle fill="#534741" cx="600.092" cy="220.73" r="8.413"/>
		<circle fill="#998675" cx="622.302" cy="198.247" r="13.001"/>
		<circle fill="#FF1D25" cx="593.199" cy="1278.871" r="8.701"/>
		<circle fill="#0071BC" cx="911.01" cy="921.019" r="9.915"/>
		<circle fill="#534741" cx="638.837" cy="747.987" r="8.353"/>
		<circle fill="#FBB03B" cx="450.544" cy="842.547" r="10.28"/>
		<circle fill="#FF0000" cx="664.627" cy="1497.641" r="8.512"/>
		<circle fill="#ED1E79" cx="176.243" cy="1344.761" r="10.275"/>
		<circle fill="#FBB03B" cx="582.745" cy="1377.918" r="8.353"/>
		<circle fill="#2E3192" cx="651.875" cy="260.879" r="10.459"/>
		<circle fill="#FF1D25" cx="856.225" cy="579.806" r="9.799"/>
		<circle fill="#0071BC" cx="738.141" cy="1151.286" r="13.599"/>
		<circle fill="#F7931E" cx="1298.387" cy="1253.896" r="12.602"/>
		<circle fill="#8C6239" cx="572.869" cy="660.593" r="9.128"/>
		<circle fill="#754C24" cx="313.386" cy="1027.688" r="8.353"/>
		<circle fill="#C7B299" cx="674.722" cy="867.224" r="13.652"/>
		<circle fill="#662D91" cx="429.089" cy="853.091" r="12.559"/>
		<circle fill="#009245" cx="347.383" cy="1505.176" r="8.959"/>
		<circle fill="#0071BC" cx="883.518" cy="572.174" r="10.732"/>
		<circle fill="#8C6239" cx="422.933" cy="874.2" r="9.43"/>
		<circle fill="#29ABE2" cx="854.82" cy="1293.852" r="10.473"/>
		<circle fill="#00A99D" cx="327.823" cy="967.91" r="9.315"/>
		<circle fill="#BDCCD4" cx="456.651" cy="1469.098" r="8.51"/>
		<circle fill="#D9E021" cx="299.273" cy="1215.275" r="13.368"/>
		<circle fill="#22B573" cx="723.373" cy="729.097" r="11.937"/>
		<circle fill="#C1272D" cx="844.346" cy="887.97" r="8.353"/>
		<circle fill="#ED1E79" cx="797.077" cy="1158.939" r="8.414"/>
		<circle fill="#0000FF" cx="852.687" cy="1315.288" r="11.069"/>
		<circle fill="#FF00FF" cx="407.177" cy="1506.483" r="13.368"/>
		<circle fill="#00FFFF" cx="1025.71" cy="1229.924" r="8.353"/>
		<circle fill="#29ABE2" cx="752.769" cy="559.112" r="8.353"/>
		<circle fill="#FF0000" cx="870.87" cy="179.908" r="8.353"/>
		<circle fill="#662D91" cx="319.432" cy="1184.253" r="11.571"/>
		<circle fill="#D4145A" cx="1007.588" cy="1369.215" r="16.663"/>
		<circle fill="#00FF00" cx="598.89" cy="1098.415" r="8.353"/>
		<circle fill="#FF00FF" cx="1144.505" cy="1288.46" r="13.311"/>
		<circle fill="#FF931E" cx="845.311" cy="211.4" r="8.353"/>
		<circle fill="#1B1464" cx="1180.743" cy="1117.273" r="12.844"/>
		<circle fill="#FFFF00" cx="1264.595" cy="1394.104" r="12.493"/>
		<circle fill="#8C6239" cx="866.907" cy="1112.699" r="8.353"/>
		<circle fill="#009245" cx="1169.925" cy="1043.363" r="8.353"/>
		<circle fill="#009245" cx="1203.457" cy="1417.976" r="8.353"/>
		<circle fill="#29ABE2" cx="466.898" cy="1223.472" r="13.437"/>
		<circle fill="#534741" cx="769.896" cy="579.684" r="8.353"/>
		<circle fill="#A67C52" cx="873.634" cy="233.134" r="8.353"/>
		<circle fill="#7AC943" cx="1014.993" cy="833.102" r="12.509"/>
		<circle fill="#FBB03B" cx="219.419" cy="1224.754" r="10.051"/>
		<circle fill="#009245" cx="1084.239" cy="1428.666" r="8.353"/>
		<circle fill="#D9E021" cx="438.322" cy="1343.204" r="9.869"/>
		<circle fill="#A67C52" cx="614.22" cy="760.018" r="9.211"/>
		<circle fill="#00FFFF" cx="805.285" cy="798.952" r="9.458"/>
		<circle fill="#F7931E" cx="646.945" cy="827.736" r="10.977"/>
		<circle fill="#FF7BAC" cx="1170.517" cy="1250.41" r="8.437"/>
		<circle fill="#736357" cx="780.537" cy="180.138" r="14.484"/>
		<circle fill="#FF7BAC" cx="998.297" cy="877.494" r="9.635"/>
		<circle fill="#ED1E79" cx="194.088" cy="1291.856" r="8.353"/>
		<circle fill="#A67C52" cx="839.06" cy="1197.648" r="8.453"/>
		<circle fill="#2E3192" cx="765.823" cy="885.231" r="8.353"/>
		<circle fill="#FFFF00" cx="808.233" cy="819.48" r="8.392"/>
		<circle fill="#534741" cx="932.882" cy="744.036" r="8.353"/>
		<circle fill="#736357" cx="609.113" cy="909.966" r="8.353"/>
	</g>
</g>
</svg>
